Coordinates
version=1
nRows=21
nColumns=33
inDegrees=yes

Units are S.I. units (second, meters, Newtons, ...)
Angles are in degrees.

endheader
time	ground_thorax_rot_x	ground_thorax_rot_y	ground_thorax_rot_z	ground_thorax_tx	ground_thorax_ty	ground_thorax_tz	clav_prot_r	clav_elev_r	scapula_abduction_r	scapula_elevation_r	scapula_upward_rot_r	scapula_winging_r	shoulder_elv_r	plane_of_elev_r	axial_rot_r	elbow_flexion_r	pro_sup_r	wrist_flex_r	wrist_dev_r	clav_prot_l	clav_elev_l	scapula_abduction_l	scapula_elevation_l	scapula_upward_rot_l	scapula_winging_l	shoulder_elv_l	plane_of_elev_l	axial_rot_l	elbow_flexion_l	pro_sup_l	wrist_flex_l	wrist_dev_l
      5.87000000	     38.30174477	      1.13451808	      7.61755703	   -151.42678816	    899.56961210	     -1.59072594	     13.61784703	     40.33615851	     41.81692128	     45.00000000	    -28.00428258	   3150.95675609	  -2630.91951013	    147.36850460	   -117.93488491	   -340.94225215	     81.43031324	     17.38050987	      2.88488065	     10.46950473	    -45.00000000	    -42.97172605	     45.00000000	    -27.15416629	  -2421.46283628	   -642.19929963	     19.56376405	    -48.43728662	      9.94228186	     22.23441924	     10.82029750	    -23.06736134
      5.88000000	     38.25172081	      1.05407417	      7.49656127	   -147.57665694	    897.63836195	     -1.36763918	     13.49121492	     40.49973477	     41.98362116	     45.00000000	    -27.31191848	   3150.94276324	  -2631.10877121	    147.30860347	   -118.13365010	   -340.89742105	     82.15426860	     17.31725040	      2.88195769	     10.36387268	    -45.00000000	    -43.20507115	     45.00000000	    -26.37460965	  -2421.70063746	   -642.46178077	     19.58713749	    -48.29491030	      9.70182449	     19.60795391	     11.31131611	    -22.88262583
      5.89000000	     38.21777292	      0.93859320	      7.40144784	   -143.69048892	    895.44662727	     -1.13937728	     13.55443156	     40.68988275	     42.23820966	     45.00000000	    -26.62911708	   3151.01989808	  -2631.35385328	    147.38888637	   -118.35677241	   -340.86627645	     82.81679586	     17.24635507	      2.87729564	     10.18974130	    -45.00000000	    -43.37744990	     45.00000000	    -25.53502850	  -2421.94352768	   -642.75224467	     19.58446048	    -48.09043467	      9.39879731	     17.09341081	     11.87142253	    -22.67144344
      5.90000000	     38.23723925	      0.97220932	      7.42569966	   -139.77377870	    893.00683724	     -0.91126910	     12.58849119	     40.52462744	     42.36349544	     45.00000000	    -26.41140418	   3150.99084878	  -2631.45893506	    147.11269617	   -118.82102637	   -340.80273625	     83.29402999	     17.36950971	      2.97380284	     10.41628989	    -45.00000000	    -43.35999044	     45.00000000	    -25.67040514	  -2422.21126733	   -643.16169070	     19.94054702	    -47.89768507	      9.14275467	     15.19575683	     11.82833397	    -22.39817884
      5.91000000	     38.16563661	      0.76695808	      7.28834843	   -135.83765608	    890.33327330	     -0.68654916	     13.75087357	     41.05842656	     42.68776725	     45.00000000	    -25.61083020	   3151.24687449	  -2631.81243278	    147.43045248	   -119.12309450	   -340.82291597	     83.81935395	     17.18777342	      2.90639542	      9.87324907	    -45.00000000	    -43.72029863	     45.00000000	    -24.14305779	  -2422.47576139	   -643.39062053	     19.57161487	    -47.47200179	      8.92735819	     12.94293860	     12.84431245	    -22.22369844
      5.92000000	     38.20534409	      0.80399845	      7.38223897	   -131.87959639	    887.44226910	     -0.46568816	     12.87649577	     40.85832496	     42.77203763	     45.00000000	    -25.56004342	   3151.26998056	  -2631.95371858	    147.07939920	   -119.53977194	   -340.74262801	     84.16795072	     17.29233720	      2.99946425	     10.09731422	    -45.00000000	    -43.68873345	     45.00000000	    -24.66440124	  -2422.81266638	   -643.81331421	     19.92818523	    -47.25074397	      8.69153386	     11.32320862	     12.78542297	    -21.96348313
      5.93000000	     38.19930324	      0.46923060	      7.08292165	   -127.91023553	    884.34883092	     -0.24811702	     14.01580488	     41.39238405	     43.18600999	     45.00000000	    -24.55369182	   3151.61821304	  -2632.29845697	    147.58591107	   -119.91548724	   -340.77305157	     84.52427323	     17.17467330	      2.96950471	      9.49600123	    -45.00000000	    -44.00956312	     45.00000000	    -22.65746778	  -2423.01002980	   -644.20820288	     19.56185294	    -46.92835366	      8.45955538	      9.41585123	     13.70229228	    -21.70750198
      5.94000000	     38.23223569	      0.32619590	      6.98005241	   -123.92917963	    881.06861448	     -0.03289436	     13.98567641	     41.51595980	     43.36733461	     45.00000000	    -23.95179383	   3151.82033238	  -2632.57686001	    147.65895259	   -120.17278318	   -340.75416654	     84.74552133	     17.18759177	      3.02514344	      9.34936167	    -45.00000000	    -44.14661758	     45.00000000	    -21.92570374	  -2423.24693764	   -644.67208805	     19.56530828	    -46.88282031	      8.25292540	      7.83804286	     13.98765180	    -21.44011171
      5.95000000	     38.25338309	      0.70111461	      7.30299817	   -119.93994276	    877.61268531	      0.18055674	     13.13514928	     41.35641533	     43.29978228	     45.00000000	    -24.34187754	   3151.77961000	  -2632.88352157	    147.14324791	   -120.49832754	   -340.80910627	     84.77609985	     17.26263701	      3.13984323	      9.57066287	    -45.00000000	    -44.04083115	     45.00000000	    -23.08484473	  -2423.74129379	   -645.00958477	     19.91396382	    -46.56866888	      8.16078222	      6.98167390	     13.80062594	    -21.26044074
      5.96000000	     38.24663714	      0.48978654	      7.10273153	   -115.95478618	    873.99096386	      0.39328719	     14.13433574	     41.82951279	     43.56417423	     45.00000000	    -23.72556351	   3152.13243668	  -2633.26821789	    147.42326446	   -121.10503276	   -340.91204906	     84.65756113	     17.26509294	      3.16993302	      9.17105258	    -45.00000000	    -44.42336956	     45.00000000	    -21.76308360	  -2423.98619682	   -645.37252209	     19.66163846	    -45.89257436	      8.05360694	      6.22880226	     14.43323749	    -21.06092586
      5.97000000	     38.31930144	      0.26148063	      6.91625834	   -111.98011246	    870.21401358	      0.60625679	     14.40721779	     42.00080318	     43.83781311	     45.00000000	    -23.16399036	   3152.51720204	  -2633.53621671	    147.69544940	   -121.67571542	   -340.98809630	     84.27521271	     17.36260687	      3.26873652	      8.93361271	    -45.00000000	    -44.61995041	     45.00000000	    -20.76926436	  -2424.24759569	   -645.94185888	     19.59604960	    -45.76067022	      7.76179152	      5.72384377	     14.63870547	    -20.84483923
      5.98000000	     38.36332426	      0.27209597	      6.95135957	   -108.03021110	    866.29660340	      0.82134657	     14.59329569	     42.13895729	     43.96896103	     45.00000000	    -23.06813928	   3152.83192048	  -2633.85722617	    147.68525941	   -122.35215615	   -341.12451822	     83.64736088	     17.48067486	      3.39082332	      8.80623930	    -45.00000000	    -44.73472344	     45.00000000	    -20.51447081	  -2424.58247592	   -646.40542337	     19.60197600	    -45.32520379	      7.61179909	      5.38260115	     14.79820029	    -20.67238576
      5.99000000	     38.45438896	      0.17763539	      6.86092453	   -104.11750773	    862.25271070	      1.04156114	     14.71639770	     42.27795788	     44.19087388	     45.00000000	    -22.74457943	   3153.14870920	  -2634.19197331	    147.81354436	   -122.95477011	   -341.32749841	     82.70382119	     17.61881142	      3.55561305	      8.66388702	    -45.00000000	    -44.84289195	     45.00000000	    -20.14444735	  -2424.93944259	   -646.96199062	     19.64897088	    -44.82017398	      7.38605114	      5.22240355	     14.92730634	    -20.49070548
      6.00000000	     38.50885148	      0.04909213	      6.75162706	   -100.25807624	    858.10645928	      1.26995267	     14.85046753	     42.42987543	     44.31462728	     45.00000000	    -22.46993864	   3153.53457087	  -2634.51869676	    147.87871015	   -123.66024325	   -341.52579862	     81.31036312	     17.80270302	      3.75240109	      8.52139405	    -45.00000000	    -45.00000000	     45.00000000	    -19.78590521	  -2425.27074930	   -647.46874516	     19.69799354	    -44.24435564	      7.21879702	      5.18029420	     15.07312122	    -20.32748528
      6.01000000	     38.56070327	      0.11169522	      6.85541512	    -96.46247609	    853.88448847	      1.50872016	     15.04898415	     42.52023446	     44.38122602	     45.00000000	    -22.56617125	   3153.92165868	  -2634.81264836	    147.82405380	   -124.34033786	   -341.76608052	     79.62939439	     17.96717433	      3.95999121	      8.42133761	    -45.00000000	    -45.00000000	     45.00000000	    -19.80019258	  -2425.69096418	   -647.94514341	     19.73197567	    -43.78899511	      7.05441649	      5.22635287	     15.19893402	    -20.16619420
      6.02000000	     38.58720399	      0.29316570	      7.06877393	    -92.73910094	    849.61840175	      1.75852704	     15.33091309	     42.57891069	     44.38024182	     45.00000000	    -23.01191249	   3154.26817033	  -2635.12648566	    147.61314998	   -125.04393171	   -342.09359632	     77.77188039	     18.14476296	      4.20901152	      8.41032920	    -45.00000000	    -45.00000000	     45.00000000	    -20.35626254	  -2426.17140289	   -648.30199864	     19.78458784	    -43.16472687	      6.94722056	      5.28792699	     15.32838493	    -20.02143159
      6.03000000	     38.64521121	      0.33005923	      7.16757097	    -89.09503219	    845.34592020	      2.01881514	     15.75982937	     42.68516058	     44.40767213	     45.00000000	    -23.26771320	   3154.77854202	  -2635.32888560	    147.53088281	   -125.77893146	   -342.41834513	     75.47966173	     18.37370911	      4.50910759	      8.36074463	    -45.00000000	    -45.00000000	     45.00000000	    -20.57222456	  -2426.67706829	   -648.74148345	     19.88382251	    -42.49763308	      6.79929290	      5.40956268	     15.51105861	    -19.85641762
      6.04000000	     38.70925239	      0.31693798	      7.18836519	    -85.52788869	    841.10060481	      2.28859485	     15.85981527	     42.73111902	     44.53259530	     45.00000000	    -23.29053966	   3155.19615017	  -2635.64157648	    147.55866183	   -126.31728611	   -342.73182681	     72.72565136	     18.54161643	      4.83535963	      8.20801420	    -45.00000000	    -45.00000000	     45.00000000	    -20.63275763	  -2427.11835647	   -649.22068780	     19.94427587	    -42.01728528	      6.56911744	      5.60509154	     15.52919161	    -19.69826935
      6.05000000	     38.76296376	      0.33451861	      7.19250291	    -82.05063007	    836.93637793	      2.56609540	     15.84470274	     42.80248251	     44.57313760	     44.85973140	    -23.22688371	   3155.54363445	  -2635.93455830	    147.60156572	   -126.64131655	   -343.20310194	     69.66030885	     18.67328290	      5.21633258	      8.22430911	    -45.00000000	    -45.00000000	     45.00000000	    -20.60311147	  -2427.50863213	   -649.71790397	     20.08415968	    -41.62802919	      6.37126210	      5.90286113	     15.57281767	    -19.55116605
      6.06000000	     38.66987267	     -0.80931424	      6.06881661	    -78.66674255	    832.89275427	      2.85138979	     14.26852003	     42.65341104	     45.00000000	     43.84713156	    -20.18919311	   3155.07017496	  -2636.51037074	    148.17393305	   -125.64015125	   -343.94579831	     63.02954783	     18.84623851	      5.88980136	      7.08476006	    -45.00000000	    -45.00000000	     45.00000000	    -18.46211712	  -2427.85118117	   -650.00325243	     20.04310875	    -41.36924221	      6.12620344	      6.72899283	     15.54844961	    -19.45633468
      6.07000000	     38.59191624	      0.15488145	      7.25486647	    -75.38835512	    829.01930744	      3.14519791	     15.02933466	     42.07737388	     45.00000000	     43.58721117	    -22.01402967	   3155.15037011	  -2636.72571356	    147.62522507	   -125.30561428	   -344.47813498	     60.06084255	     18.90610701	      6.27109506	      8.05689201	    -45.00000000	    -45.00000000	     45.00000000	    -20.37822699	  -2428.03750608	   -650.42135715	     20.36807698	    -41.27736629	      5.93352311	      7.07261577	     15.31335174	    -19.35780398
